HIERARCHY
ROOT Root
{
  OFFSET 0.0 0.0 0.0
  CHANNELS 6 Xposition Yposition Zposition Zrotation Yrotation Xrotation
  JOINT Hips
  {
    OFFSET 0.0 100.0 0.0
    CHANNELS 6 Xposition Yposition Zposition Zrotation Yrotation Xrotation
    JOINT Spine1
    {
      OFFSET 5.003913 -0.037094 -0.013727
      CHANNELS 3 Zrotation Yrotation Xrotation
      JOINT Spine2
      {
        OFFSET 7.125363 -1e-06 0.0
        CHANNELS 3 Zrotation Yrotation Xrotation
        JOINT Chest
        {
          OFFSET 7.594027 1e-06 0.0
          CHANNELS 3 Zrotation Yrotation Xrotation
          JOINT Neck1
          {
            OFFSET 26.313086 -0.460272 -0.181672
            CHANNELS 3 Zrotation Yrotation Xrotation
            JOINT Neck2
            {
              OFFSET 8.045911 0.0 0.0
              CHANNELS 3 Zrotation Yrotation Xrotation
              JOINT Head
              {
                OFFSET 6.432774 0.0 0.0
                CHANNELS 3 Zrotation Yrotation Xrotation
                JOINT HeadEnd
                {
                  OFFSET 16.169773 0.06451 0.00362
                  CHANNELS 3 Zrotation Yrotation Xrotation
                }
                JOINT Jaw
                {
                  OFFSET 0.108741 3.12938 0.002639
                  CHANNELS 3 Zrotation Yrotation Xrotation
                }
                JOINT LeftEye
                {
                  OFFSET 4.45173 8.166359 3.206392
                  CHANNELS 3 Zrotation Yrotation Xrotation
                }
                JOINT RightEye
                {
                  OFFSET 4.436895 8.135758 -3.222429
                  CHANNELS 3 Zrotation Yrotation Xrotation
                }
              }
            }
          }
          JOINT LeftShoulder
          {
            OFFSET 23.218927 5.195579 1.621656
            CHANNELS 3 Zrotation Yrotation Xrotation
            JOINT LeftArm
            {
              OFFSET 15.902118 2e-06 -2e-06
              CHANNELS 3 Zrotation Yrotation Xrotation
              JOINT LeftForeArm
              {
                OFFSET 28.739307 0.0 -1e-06
                CHANNELS 3 Zrotation Yrotation Xrotation
                JOINT LeftHand
                {
                  OFFSET 27.093981 -4e-06 0.0
                  CHANNELS 3 Zrotation Yrotation Xrotation
                  JOINT LeftHandThumb1
                  {
                    OFFSET 2.276781 3.380274 0.83384
                    CHANNELS 3 Zrotation Yrotation Xrotation
                    JOINT LeftHandThumb2
                    {
                      OFFSET 4.705309 -1e-06 -1e-06
                      CHANNELS 3 Zrotation Yrotation Xrotation
                      JOINT LeftHandThumb3
                      {
                        OFFSET 2.798515 0.0 3e-06
                        CHANNELS 3 Zrotation Yrotation Xrotation
                        JOINT LeftHandThumbEnd
                        {
                          OFFSET 3.180793 4e-06 -4e-06
                          CHANNELS 3 Zrotation Yrotation Xrotation
                        }
                      }
                    }
                  }
                  JOINT LeftHandIndex1
                  {
                    OFFSET 3.247786 2.352677 0.137192
                    CHANNELS 3 Zrotation Yrotation Xrotation
                    JOINT LeftHandIndex2
                    {
                      OFFSET 6.367095 1e-06 0.0
                      CHANNELS 3 Zrotation Yrotation Xrotation
                      JOINT LeftHandIndex3
                      {
                        OFFSET 3.662364 0.0 0.0
                        CHANNELS 3 Zrotation Yrotation Xrotation
                        JOINT LeftHandIndex4
                        {
                          OFFSET 2.329242 4e-06 -4e-06
                          CHANNELS 3 Zrotation Yrotation Xrotation
                          JOINT LeftHandIndexEnd
                          {
                            OFFSET 2.767823 1e-06 0.0
                            CHANNELS 3 Zrotation Yrotation Xrotation
                          }
                        }
                      }
                    }
                  }
                  JOINT LeftHandMiddle1
                  {
                    OFFSET 3.163612 0.945023 -0.406112
                    CHANNELS 3 Zrotation Yrotation Xrotation
                    JOINT LeftHandMiddle2
                    {
                      OFFSET 6.276789 3e-06 0.0
                      CHANNELS 3 Zrotation Yrotation Xrotation
                      JOINT LeftHandMiddle3
                      {
                        OFFSET 4.35652 -1e-06 4e-06
                        CHANNELS 3 Zrotation Yrotation Xrotation
                        JOINT LeftHandMiddle4
                        {
                          OFFSET 2.996877 0.0 8e-06
                          CHANNELS 3 Zrotation Yrotation Xrotation
                          JOINT LeftHandMiddleEnd
                          {
                            OFFSET 2.323256 3e-06 -4e-06
                            CHANNELS 3 Zrotation Yrotation Xrotation
                          }
                        }
                      }
                    }
                  }
                  JOINT LeftHandRing1
                  {
                    OFFSET 2.882606 -0.309162 0.107445
                    CHANNELS 3 Zrotation Yrotation Xrotation
                    JOINT LeftHandRing2
                    {
                      OFFSET 6.033198 0.0 4e-06
                      CHANNELS 3 Zrotation Yrotation Xrotation
                      JOINT LeftHandRing3
                      {
                        OFFSET 4.350578 3e-06 0.0
                        CHANNELS 3 Zrotation Yrotation Xrotation
                        JOINT LeftHandRing4
                        {
                          OFFSET 2.651321 2e-06 -7e-06
                          CHANNELS 3 Zrotation Yrotation Xrotation
                          JOINT LeftHandRingEnd
                          {
                            OFFSET 1.937663 1e-06 -4e-06
                            CHANNELS 3 Zrotation Yrotation Xrotation
                          }
                        }
                      }
                    }
                  }
                  JOINT LeftHandPinky1
                  {
                    OFFSET 2.865315 -1.525436 0.575687
                    CHANNELS 3 Zrotation Yrotation Xrotation
                    JOINT LeftHandPinky2
                    {
                      OFFSET 5.54936 1e-06 -8e-06
                      CHANNELS 3 Zrotation Yrotation Xrotation
                      JOINT LeftHandPinky3
                      {
                        OFFSET 3.070974 0.0 -4e-06
                        CHANNELS 3 Zrotation Yrotation Xrotation
                        JOINT LeftHandPinky4
                        {
                          OFFSET 1.549672 1e-06 0.0
                          CHANNELS 3 Zrotation Yrotation Xrotation
                          JOINT LeftHandPinkyEnd
                          {
                            OFFSET 1.952123 0.0 0.0
                            CHANNELS 3 Zrotation Yrotation Xrotation
                          }
                        }
                      }
                    }
                  }
                }
              }
            }
          }
          JOINT RightShoulder
          {
            OFFSET 23.161716 5.296122 -1.380114
            CHANNELS 3 Zrotation Yrotation Xrotation
            JOINT RightArm
            {
              OFFSET -16.027195 -2e-06 1.1e-05
              CHANNELS 3 Zrotation Yrotation Xrotation
              JOINT RightForeArm
              {
                OFFSET -28.736639 4e-06 2e-06
                CHANNELS 3 Zrotation Yrotation Xrotation
                JOINT RightHand
                {
                  OFFSET -27.133619 6e-06 0.0
                  CHANNELS 3 Zrotation Yrotation Xrotation
                  JOINT RightHandThumb1
                  {
                    OFFSET -2.274328 -3.351035 -0.83067
                    CHANNELS 3 Zrotation Yrotation Xrotation
                    JOINT RightHandThumb2
                    {
                      OFFSET -4.703594 -3e-06 2e-06
                      CHANNELS 3 Zrotation Yrotation Xrotation
                      JOINT RightHandThumb3
                      {
                        OFFSET -2.794935 -4e-06 -3e-06
                        CHANNELS 3 Zrotation Yrotation Xrotation
                        JOINT RightHandThumbEnd
                        {
                          OFFSET -3.183852 4e-06 1e-06
                          CHANNELS 3 Zrotation Yrotation Xrotation
                        }
                      }
                    }
                  }
                  JOINT RightHandIndex1
                  {
                    OFFSET -3.253496 -2.33755 -0.127667
                    CHANNELS 3 Zrotation Yrotation Xrotation
                    JOINT RightHandIndex2
                    {
                      OFFSET -6.344434 0.0 0.0
                      CHANNELS 3 Zrotation Yrotation Xrotation
                      JOINT RightHandIndex3
                      {
                        OFFSET -3.654871 0.0 -8e-06
                        CHANNELS 3 Zrotation Yrotation Xrotation
                        JOINT RightHandIndex4
                        {
                          OFFSET -2.327586 -1e-06 0.0
                          CHANNELS 3 Zrotation Yrotation Xrotation
                          JOINT RightHandIndexEnd
                          {
                            OFFSET -2.770001 3e-06 8e-06
                            CHANNELS 3 Zrotation Yrotation Xrotation
                          }
                        }
                      }
                    }
                  }
                  JOINT RightHandMiddle1
                  {
                    OFFSET -3.168223 -0.944764 0.411762
                    CHANNELS 3 Zrotation Yrotation Xrotation
                    JOINT RightHandMiddle2
                    {
                      OFFSET -6.266691 -1e-06 -4e-06
                      CHANNELS 3 Zrotation Yrotation Xrotation
                      JOINT RightHandMiddle3
                      {
                        OFFSET -4.348901 0.0 0.0
                        CHANNELS 3 Zrotation Yrotation Xrotation
                        JOINT RightHandMiddle4
                        {
                          OFFSET -3.00024 2e-06 -4e-06
                          CHANNELS 3 Zrotation Yrotation Xrotation
                          JOINT RightHandMiddleEnd
                          {
                            OFFSET -2.321477 -4e-06 -4e-06
                            CHANNELS 3 Zrotation Yrotation Xrotation
                          }
                        }
                      }
                    }
                  }
                  JOINT RightHandRing1
                  {
                    OFFSET -2.885654 0.293261 -0.119232
                    CHANNELS 3 Zrotation Yrotation Xrotation
                    JOINT RightHandRing2
                    {
                      OFFSET -6.032835 -1e-06 -4e-06
                      CHANNELS 3 Zrotation Yrotation Xrotation
                      JOINT RightHandRing3
                      {
                        OFFSET -4.33881 0.0 -4e-06
                        CHANNELS 3 Zrotation Yrotation Xrotation
                        JOINT RightHandRing4
                        {
                          OFFSET -2.654903 -4e-06 -4e-06
                          CHANNELS 3 Zrotation Yrotation Xrotation
                          JOINT RightHandRingEnd
                          {
                            OFFSET -1.935122 0.0 4e-06
                            CHANNELS 3 Zrotation Yrotation Xrotation
                          }
                        }
                      }
                    }
                  }
                  JOINT RightHandPinky1
                  {
                    OFFSET -2.866241 1.503904 -0.60527
                    CHANNELS 3 Zrotation Yrotation Xrotation
                    JOINT RightHandPinky2
                    {
                      OFFSET -5.553177 -2e-06 0.0
                      CHANNELS 3 Zrotation Yrotation Xrotation
                      JOINT RightHandPinky3
                      {
                        OFFSET -3.062664 -1e-06 -4e-06
                        CHANNELS 3 Zrotation Yrotation Xrotation
                        JOINT RightHandPinky4
                        {
                          OFFSET -1.546529 2e-06 4e-06
                          CHANNELS 3 Zrotation Yrotation Xrotation
                          JOINT RightHandPinkyEnd
                          {
                            OFFSET -1.952341 0.0 -4e-06
                            CHANNELS 3 Zrotation Yrotation Xrotation
                          }
                        }
                      }
                    }
                  }
                }
              }
            }
          }
        }
      }
    }
    JOINT LeftLeg
    {
      OFFSET -8.443107 2.567604 10.043214
      CHANNELS 3 Zrotation Yrotation Xrotation
      JOINT LeftShin
      {
        OFFSET 43.229198 1e-06 -1e-06
        CHANNELS 3 Zrotation Yrotation Xrotation
        JOINT LeftFoot
        {
          OFFSET 42.298611 1e-06 1e-06
          CHANNELS 3 Zrotation Yrotation Xrotation
          JOINT LeftToeBase
          {
            OFFSET 14.165858 1e-06 0.0
            CHANNELS 3 Zrotation Yrotation Xrotation
            JOINT LeftToeEnd
            {
              OFFSET 6.7141 -0.234461 0.0
              CHANNELS 3 Zrotation Yrotation Xrotation
            }
          }
        }
      }
    }
    JOINT RightLeg
    {
      OFFSET -8.303923 2.592729 -10.047278
      CHANNELS 3 Zrotation Yrotation Xrotation
      JOINT RightShin
      {
        OFFSET -43.369682 0.0 1e-06
        CHANNELS 3 Zrotation Yrotation Xrotation
        JOINT RightFoot
        {
          OFFSET -42.260784 4e-06 2e-06
          CHANNELS 3 Zrotation Yrotation Xrotation
          JOINT RightToeBase
          {
            OFFSET -14.222245 -2e-06 -1e-06
            CHANNELS 3 Zrotation Yrotation Xrotation
            JOINT RightToeEnd
            {
              OFFSET -6.660062 0.232574 -2e-06
              CHANNELS 3 Zrotation Yrotation Xrotation
            }
          }
        }
      }
    }
  }
}
MOTION
Frames: 4
Frame Time: 0.03333333333333333
0.0 0.0 0.0 0.0 -0.0 0.0 1.065143 98.978989 -0.68411 94.300232 2.944048 94.061569 -1.918553 -0.194514 0.512665 -11.821837 -0.186071 0.610024 29.488031 -3.410372 -1.788961 45.463688 -5.769672 1.827041 -2.500766 -0.682414 -2.699804 -15.587344 -1.61416 -3.514655 6e-06 -0.0 0.0 -0.097229 0.007029 0.036385 -0.133042 0.117816 -0.029939 -0.209532 -0.106736 0.113874 -107.007561 -76.062492 126.269165 61.382084 -58.993259 -23.639219 23.010675 -0.271294 0.021281 -5.988883 2.899767 3.825735 17.636629 -26.322735 52.411194 -19.466665 -14.395598 29.410389 -2e-06 -8.77482 -2e-06 16.818567 -18.339413 5.755419 -0.609776 -1.795653 -3.889329 -4.807087 -11.04681 -2.93785 7e-06 -20.976019 1e-06 -5.019968 -25.033554 -4.03188 6e-06 -1e-06 0.0 -10.634533 -5.686972 -3.565589 10.573275 -17.922953 -3.113902 3e-06 -13.82121 2e-06 -0.501775 -31.181505 -4.027014 -11.413783 -59.7612 7.162085 -13.982712 -7.150197 -2.875042 13.77273 -8.401493 -3.218241 0.347735 -34.211544 0.771655 -0.963029 -17.73337 2.62102 -1e-06 -1e-06 0.0 -17.346415 -20.095217 -4.20178 21.757555 -1.638375 3.866426 2e-06 -6.338822 2e-06 -1.697587 -22.591745 -6.194005 -0.0 -1e-06 -3e-06 77.690712 -78.631454 124.67601 57.560383 -56.854832 -19.886461 29.245888 -0.365233 -0.104976 0.791071 4.357269 5.51985 22.182114 -20.375895 49.933327 -16.701818 -16.74353 28.476534 -5e-06 -12.6906 -1e-06 16.238384 -17.619041 2.541006 -0.105919 -1.513857 -4.275882 -5.039039 -5.612871 -2.953556 5e-06 -11.020524 -3e-06 -6.111295 -15.895334 -3.840472 -0.0 1e-06 -1e-06 -10.283369 -5.680288 -4.341839 11.028295 -11.302407 -2.372635 -1.384268 -14.23858 -6.32012 -0.625432 -26.924191 -3.827604 -4.424135 -49.742207 -3.622878 -13.708522 -7.363475 -3.72094 18.14115 -14.05274 -3.242678 8e-06 -18.787271 -3e-06 -0.429711 -8.456046 2.555504 -1e-06 1e-06 -1e-06 -15.923532 -20.094482 -5.473587 30.41921 -7.190828 1.735924 4e-06 -8.162926 -0.0 -1.8619 -22.861469 -6.167942 0.0 -5e-06 -3e-06 -177.093323 1.426265 -0.460212 13.120584 0.042188 -0.131436 -82.007042 0.691022 -3.790074 -3.830627 1.401285 2.169243 -0.999999 -0.0 -0.0 -2.475999 -10.871046 -6.868153 24.16304 -0.013506 0.084671 -85.142426 -6.319658 -9.991858 -3.620532 0.661542 1.734561 -1.000003 -0.0 -0.0 
0.0 0.0 0.0 0.0 -0.0 0.0 1.476492 98.906418 -0.836895 94.721893 3.163139 94.169685 -1.803633 -0.290641 0.513922 -11.758138 -0.189611 0.635424 29.979788 -3.468684 -1.758525 46.21553 -5.755699 1.842313 -2.464035 -0.676188 -2.87311 -15.008624 -1.483575 -3.731473 7e-06 1e-06 0.0 -0.106178 0.010632 0.029469 -0.111839 0.130659 -0.040626 -0.200697 -0.111763 0.111691 -106.994209 -76.164032 126.292068 62.736736 -58.675777 -24.827894 22.719414 -0.260729 0.022595 -6.218878 2.802975 2.752792 17.636627 -26.322733 52.411194 -19.466658 -14.3956 29.410389 -1e-06 -8.774822 -1e-06 16.815884 -18.354027 5.763165 -0.609776 -1.795654 -3.889327 -4.807091 -11.046812 -2.937848 2e-06 -20.976019 1e-06 -5.019975 -25.033556 -4.031882 6e-06 -4e-06 -0.0 -10.634537 -5.686972 -3.565588 10.573275 -17.922951 -3.1139 1e-06 -13.821211 3e-06 -0.501778 -31.181511 -4.027018 -11.361074 -59.832451 7.199522 -13.982718 -7.1502 -2.875041 13.772731 -8.401493 -3.218242 0.347731 -34.211555 0.771655 -0.96303 -17.73337 2.621018 1e-06 0.0 1e-06 -17.346426 -20.095221 -4.20178 21.757565 -1.638373 3.866428 1e-06 -6.338824 2e-06 -1.697593 -22.591747 -6.194007 -1e-06 -1e-06 -1e-06 78.669403 -78.789818 123.82402 57.929226 -56.362366 -20.156801 28.260416 -0.417781 -0.142456 0.683518 4.59184 5.401746 22.182116 -20.375891 49.933323 -16.701815 -16.743528 28.476534 -2e-06 -12.690602 -2e-06 16.261362 -17.644083 2.531891 -0.105919 -1.513857 -4.275882 -5.039042 -5.612873 -2.953558 4e-06 -11.020525 -3e-06 -6.111298 -15.895338 -3.840472 0.0 0.0 -2e-06 -10.283371 -5.680291 -4.34184 11.028294 -11.302406 -2.372633 -1.38427 -14.238583 -6.320119 -0.625438 -26.924194 -3.827604 -4.362271 -49.779663 -3.653314 -13.708526 -7.363478 -3.720942 18.141153 -14.052739 -3.242676 4e-06 -18.78727 -3e-06 -0.42971 -8.456044 2.555503 0.0 -1e-06 1e-06 -15.923538 -20.094492 -5.473588 30.419218 -7.190825 1.735926 2e-06 -8.162928 -2e-06 -1.861903 -22.861471 -6.167943 0.0 -5e-06 -3e-06 -177.016724 2.16331 -0.287268 13.347121 0.046962 -0.187042 -82.044342 0.613039 -3.401623 -3.867892 1.414432 2.162741 -1.0 -0.0 0.0 -2.689417 -11.75019 -7.113943 25.009085 0.007667 0.093724 -85.226494 -5.95197 -10.290012 -3.600072 0.670892 1.732147 -1.000002 0.0 -0.0 
0.0 0.0 0.0 0.0 -0.0 0.0 1.855392 98.897514 -0.954513 94.9179 3.377984 94.295525 -1.683266 -0.307018 0.486938 -11.712237 -0.184795 0.672557 30.347187 -3.410307 -1.731215 46.925957 -5.592338 1.858852 -2.42492 -0.673265 -2.983595 -14.499026 -1.31356 -3.907286 5e-06 -0.0 1e-06 -0.111381 0.011748 0.022163 -0.103685 0.134151 -0.056327 -0.205195 -0.111364 0.112994 -106.389473 -76.354057 125.653816 63.733765 -58.414352 -25.474277 22.666843 -0.308737 0.027118 -6.256762 2.293555 2.022025 17.636629 -26.322721 52.411182 -19.46666 -14.395597 29.410381 0.0 -8.774822 -0.0 16.80649 -18.329418 5.74828 -0.609776 -1.795653 -3.889325 -4.80709 -11.046809 -2.93785 3e-06 -20.976015 -2e-06 -5.019972 -25.033554 -4.031884 6e-06 -2e-06 1e-06 -10.634535 -5.686971 -3.565588 10.573272 -17.922951 -3.113901 2e-06 -13.821209 2e-06 -0.501778 -31.181501 -4.027017 -11.264989 -59.862038 7.205502 -13.982715 -7.150199 -2.875041 13.772731 -8.401491 -3.218241 0.347732 -34.211544 0.771655 -0.963028 -17.73337 2.621017 0.0 0.0 -1e-06 -17.34642 -20.095217 -4.20178 21.757557 -1.638373 3.86643 1e-06 -6.338823 1e-06 -1.697591 -22.591745 -6.194008 -0.0 -3e-06 -2e-06 79.796722 -78.823135 122.801788 58.092175 -56.082668 -20.725487 27.652731 -0.44193 -0.15613 0.517543 5.067947 4.827722 22.182112 -20.375898 49.933327 -16.701811 -16.743528 28.476532 -2e-06 -12.690601 -2e-06 16.278576 -17.658886 2.527293 -0.105919 -1.513855 -4.27588 -5.039039 -5.612871 -2.953556 4e-06 -11.020523 -3e-06 -6.111295 -15.89533 -3.840473 0.0 0.0 1e-06 -10.283369 -5.680288 -4.341839 11.028292 -11.302402 -2.372636 -1.38427 -14.238581 -6.320122 -0.62544 -26.924187 -3.8276 -4.32707 -49.809811 -3.675974 -13.708522 -7.363476 -3.72094 18.141146 -14.052737 -3.242675 5e-06 -18.787271 -0.0 -0.429711 -8.456041 2.555506 -1e-06 2e-06 -1e-06 -15.923532 -20.094482 -5.473586 30.41921 -7.190826 1.735926 2e-06 -8.162925 -1e-06 -1.861901 -22.861473 -6.16794 -0.0 -4e-06 -2e-06 -176.751083 2.616247 -0.146435 13.187233 0.048827 -0.213488 -81.918159 0.547965 -3.084496 -3.910781 1.40115 2.150644 -0.999998 -0.0 0.0 -2.606013 -12.266544 -7.280292 25.277811 0.016188 0.086535 -85.017487 -5.746447 -10.584202 -3.676507 0.674558 1.724235 -1.000001 -0.0 -0.0 
0.0 0.0 0.0 0.0 -0.0 0.0 2.186612 98.93795 -1.070126 94.917336 3.576841 94.416794 -1.507854 -0.295775 0.451013 -11.649116 -0.180047 0.677115 30.549788 -3.26829 -1.677686 47.663273 -5.273492 1.824344 -2.387823 -0.65908 -3.020218 -14.026487 -1.095827 -4.036637 8e-06 -0.0 -0.0 -0.112428 0.004893 0.019956 -0.10466 0.12967 -0.067456 -0.220064 -0.118181 0.119427 -104.710289 -76.748528 123.898476 64.430168 -58.233799 -26.022774 22.943634 -0.35991 0.026252 -6.114064 1.828993 1.598739 17.636631 -26.322739 52.411201 -19.466663 -14.395596 29.410393 -1e-06 -8.774821 0.0 16.781851 -18.257624 5.728228 -0.609776 -1.795654 -3.889329 -4.807087 -11.046813 -2.93785 6e-06 -20.976025 1e-06 -5.019969 -25.033562 -4.031881 7e-06 1e-06 1e-06 -10.634535 -5.686971 -3.565589 10.573277 -17.922955 -3.113902 3e-06 -13.821213 2e-06 -0.501775 -31.181511 -4.027016 -11.154673 -59.836563 7.153202 -13.982714 -7.150198 -2.875045 13.77273 -8.401493 -3.21824 0.347735 -34.211555 0.771657 -0.963028 -17.733372 2.62102 -0.0 1e-06 -0.0 -17.346418 -20.095221 -4.201782 21.757557 -1.638376 3.866426 1e-06 -6.338824 2e-06 -1.697589 -22.591742 -6.194006 1e-06 -3e-06 -2e-06 81.177643 -78.754616 121.471581 58.16103 -56.096344 -21.585842 27.528332 -0.433466 -0.16724 0.521599 5.709161 3.804329 22.182119 -20.375898 49.933323 -16.701817 -16.74353 28.476532 -4e-06 -12.690603 -2e-06 16.252291 -17.623648 2.516287 -0.105918 -1.513856 -4.27588 -5.039042 -5.612872 -2.953558 4e-06 -11.020527 -3e-06 -6.111301 -15.895334 -3.840469 0.0 0.0 1e-06 -10.283371 -5.680288 -4.34184 11.028296 -11.302407 -2.372633 -1.38427 -14.238585 -6.32012 -0.625439 -26.924198 -3.827601 -4.309732 -49.726246 -3.710414 -13.708527 -7.363478 -3.720941 18.141153 -14.052744 -3.242676 7e-06 -18.787275 -2e-06 -0.42971 -8.456046 2.555506 -1e-06 0.0 -1e-06 -15.923536 -20.094484 -5.473584 30.419218 -7.190827 1.735927 -0.0 -8.162925 -1e-06 -1.861903 -22.861473 -6.167943 2e-06 -5e-06 -2e-06 -176.410858 2.790731 -0.117533 12.807934 0.047895 -0.204765 -81.685707 0.564362 -2.92649 -3.964515 1.363841 2.136969 -0.999998 -0.0 -0.0 -2.323943 -12.435753 -7.319168 25.088205 0.008089 0.077594 -84.610832 -5.697912 -10.821295 -3.876818 0.678001 1.715519 -1.000002 -0.0 0.0 
